<?xml version="1.0" standalone="no"?>
<!DOCTYPE svg PUBLIC "-//W3C//DTD SVG 20010904//EN"
 "http://www.w3.org/TR/2001/REC-SVG-20010904/DTD/svg10.dtd">
<svg version="1.0" xmlns="http://www.w3.org/2000/svg"
 width="512.000000pt" height="512.000000pt" viewBox="0 0 512.000000 512.000000"
 preserveAspectRatio="xMidYMid meet">
<metadata>
Created by potrace 1.14, written by Peter Selinger 2001-2017
</metadata>
<g transform="translate(0.000000,512.000000) scale(0.100000,-0.100000)"
fill="#000000" stroke="none">
<path d="M998 4882 c-14 -16 -178 -258 -649 -962 -112 -168 -210 -311 -216
-318 -7 -7 -13 -17 -13 -22 0 -5 -7 -16 -16 -25 -9 -9 -27 -41 -39 -71 -25
-61 -25 -120 0 -176 8 -18 94 -143 190 -278 210 -296 185 -260 245 -345 138
-195 271 -382 284 -400 8 -11 57 -81 110 -155 52 -74 102 -144 110 -155 13
-18 616 -869 691 -975 79 -111 366 -516 440 -620 45 -63 104 -146 130 -185 58
-84 86 -110 142 -131 96 -37 191 1 265 106 116 165 392 555 450 635 16 22 44
63 63 90 19 28 140 199 269 380 129 182 240 337 246 345 6 8 49 69 96 135 47
66 135 190 195 275 60 85 131 187 159 225 27 39 55 78 62 88 7 11 51 72 98
137 47 65 92 129 100 141 8 12 33 47 55 78 229 319 424 602 434 630 27 80 14
124 -86 301 -11 19 -35 62 -53 95 -18 33 -42 76 -53 95 -11 19 -85 152 -165
295 -79 143 -155 279 -168 303 -13 23 -35 62 -49 87 -14 25 -36 65 -50 90
-101 182 -117 207 -167 261 l-40 44 -1528 0 c-1438 0 -1528 -1 -1542 -18z
m1067 -493 c0 -7 -405 -619 -410 -619 -4 0 -205 603 -205 616 0 6 126 9 308 9
169 0 307 -3 307 -6z m1613 -1 c-9 -25 -334 -677 -338 -677 -6 -1 -436 648
-445 670 -4 12 52 14 390 14 217 0 394 -3 393 -7z m-1188 -156 c0 -5 104 -165
230 -356 127 -191 230 -351 230 -355 0 -5 -214 -9 -475 -9 -261 -1 -475 2
-475 5 0 3 101 157 224 343 124 186 230 348 236 359 11 21 30 29 30 13z
m-1306 -395 c54 -166 101 -308 104 -315 3 -10 -58 -12 -307 -11 -171 1 -311 4
-311 7 0 6 60 102 75 119 5 6 82 122 170 257 88 135 162 246 165 246 3 0 50
-136 104 -303z m3005 -3 c83 -168 151 -309 151 -313 0 -5 -140 -8 -311 -8
-224 0 -309 3 -306 11 17 43 303 616 308 616 3 0 74 -138 158 -306z m-2761
-709 c8 -8 39 -113 57 -185 2 -8 40 -143 85 -300 45 -157 83 -289 84 -295 2
-5 8 -30 15 -55 7 -25 15 -52 16 -60 2 -8 47 -166 100 -350 139 -486 144 -503
135 -494 -7 8 -364 510 -466 656 -20 29 -125 177 -233 328 -107 151 -252 356
-322 455 -70 99 -146 205 -168 236 -23 31 -41 61 -41 65 0 13 727 11 738 -1z
m1646 5 c2 -3 -40 -161 -94 -350 -107 -376 -425 -1497 -467 -1650 -15 -52 -29
-98 -33 -102 -4 -6 -108 336 -134 443 -6 23 -133 472 -153 539 -9 30 -17 60
-19 65 -2 13 -111 397 -129 460 -28 94 -146 510 -150 528 -2 10 -7 27 -10 38
-4 10 -4 22 -2 27 6 8 1182 10 1191 2z m1117 -115 c-67 -95 -316 -447 -500
-706 -14 -20 -84 -119 -156 -220 -71 -101 -144 -204 -162 -229 -18 -25 -37
-50 -41 -55 -4 -6 -27 -39 -52 -75 -24 -36 -48 -69 -52 -75 -5 -5 -43 -59 -86
-120 -42 -60 -82 -116 -89 -123 -7 -7 -13 -18 -13 -24 0 -6 -2 -9 -5 -6 -5 4
172 641 275 993 16 55 70 246 121 425 50 179 93 327 94 330 2 3 171 5 377 5
l373 0 -84 -120z"/>
</g>
</svg>
